<svg width="23" height="20" viewBox="0 0 23 20" fill="none" xmlns="http://www.w3.org/2000/svg">
<path d="M20.7084 1.80215C20.1763 1.26987 19.5446 0.847619 18.8493 0.559533C18.1541 0.271447 17.4089 0.123169 16.6563 0.123169C15.9037 0.123169 15.1585 0.271447 14.4632 0.559533C13.7679 0.847619 13.1362 1.26987 12.6042 1.80215L11.5 2.90632L10.3959 1.80215C9.32119 0.727475 7.86361 0.123726 6.34379 0.123726C4.82396 0.123726 3.36639 0.727475 2.29171 1.80215C1.21703 2.87683 0.613281 4.33441 0.613281 5.85424C0.613281 7.37406 1.21703 8.83164 2.29171 9.90632L3.39587 11.0105L11.5 19.1147L19.6042 11.0105L20.7084 9.90632C21.2406 9.37428 21.6629 8.74258 21.951 8.04731C22.2391 7.35204 22.3873 6.60683 22.3873 5.85424C22.3873 5.10164 22.2391 4.35643 21.951 3.66116C21.6629 2.96589 21.2406 2.33419 20.7084 1.80215Z" fill="#020F59"/>
</svg>
